<svg width="13" height="13" viewBox="0 0 13 13" fill="none" xmlns="http://www.w3.org/2000/svg">
<path d="M0.816347 5.94857C0.816347 5.24623 0.816347 4.56928 0.816347 3.89232C0.816347 3.60885 0.862875 3.55385 1.13781 3.49884C1.92455 3.33807 2.71129 3.18152 3.51072 3.02074C3.51495 2.9742 3.51918 2.92766 3.51918 2.88535C3.51918 2.2084 3.51495 1.53145 3.52341 0.854492C3.52341 0.744487 3.4938 0.693716 3.38806 0.66833C3.23578 0.630251 3.08351 0.579479 2.93547 0.528708C2.75782 0.469474 2.68168 0.329853 2.73244 0.177538C2.77897 0.0336856 2.92278 -0.0340099 3.09197 0.0167616C4.25516 0.367931 5.41412 0.723332 6.57308 1.07873C7.77434 1.44683 8.9756 1.81492 10.1769 2.17878C10.2234 2.19148 10.2699 2.20417 10.3122 2.22532C10.4476 2.28879 10.5068 2.43264 10.456 2.56803C10.4095 2.69496 10.2699 2.76689 10.1346 2.73304C9.9696 2.69073 9.80887 2.63573 9.64813 2.58919C9.59738 2.57226 9.54662 2.55957 9.4874 2.54688C9.4874 2.71188 9.4874 2.8642 9.4874 3.02497C9.98652 3.12652 10.4814 3.22383 10.9763 3.32537C11.2935 3.38884 11.6065 3.4523 11.9238 3.51577C12.1141 3.55385 12.1818 3.63846 12.1818 3.83732C12.1818 4.48043 12.1818 5.12776 12.1818 5.77087C12.1818 5.82587 12.1818 5.88511 12.1818 5.95703C12.3467 5.95703 12.4905 5.95703 12.6386 5.95703C12.9093 5.95703 12.9981 6.04588 12.9981 6.32089C12.9981 8.2756 12.9981 10.2345 12.9981 12.1892C12.9981 12.3542 13.0023 12.5193 12.9981 12.68C12.9939 12.8916 12.8924 12.9889 12.6851 12.9974C12.647 12.9974 12.6132 12.9974 12.5751 12.9974C8.52724 12.9974 4.47511 12.9974 0.427208 12.9974C0.0719059 12.9974 0 12.9254 0 12.57C0 10.4969 0 8.42368 0 6.35051C0 6.03319 0.0761359 5.9528 0.38914 5.9528C0.524493 5.94857 0.664075 5.94857 0.816347 5.94857ZM5.13496 9.75643C5.10958 9.74374 5.09689 9.73951 5.08843 9.73951C4.94039 9.73951 4.79234 9.73951 4.6443 9.73528C4.4455 9.73105 4.33553 9.63797 4.33553 9.47296C4.3313 9.30372 4.44973 9.19795 4.65276 9.19795C5.88363 9.19795 7.11449 9.19795 8.34959 9.19795C8.54839 9.19795 8.66682 9.30795 8.66259 9.47719C8.65836 9.63797 8.54839 9.73528 8.34959 9.73528C8.19309 9.73951 8.03659 9.73528 7.87162 9.73528C7.87162 10.6492 7.87162 11.5419 7.87162 12.4389C9.40281 12.4389 10.9255 12.4389 12.4525 12.4389C12.4525 10.4545 12.4525 8.47868 12.4525 6.49859C8.48071 6.49859 4.52164 6.49859 0.554101 6.49859C0.554101 8.48292 0.554101 10.4588 0.554101 12.4346C2.08951 12.4346 3.61223 12.4346 5.13919 12.4346C5.13496 11.5334 5.13496 10.6492 5.13496 9.75643ZM8.93753 5.94011C8.93753 5.86818 8.93753 5.80472 8.93753 5.74125C8.93753 4.68351 8.9333 3.62577 8.94176 2.56803C8.94176 2.40726 8.89523 2.34379 8.74296 2.29725C7.52478 1.93762 6.3066 1.56529 5.08843 1.1972C4.75004 1.09566 4.41166 0.994114 4.06905 0.892571C4.06905 2.58496 4.06905 4.25619 4.06905 5.93588C5.68906 5.94011 7.3006 5.94011 8.93753 5.94011ZM1.35776 5.93588C2.08951 5.93588 2.80012 5.93588 3.51495 5.93588C3.51495 5.14469 3.51495 4.36196 3.51495 3.57077C2.8128 3.71039 2.12335 3.84578 1.42967 3.98963C1.40006 3.99387 1.36199 4.0531 1.36199 4.08695C1.35776 4.70044 1.35776 5.31393 1.35776 5.93588ZM11.6319 3.9981C10.9128 3.85424 10.2022 3.71462 9.4874 3.57077C9.4874 4.36619 9.4874 5.14892 9.4874 5.93588C10.2065 5.93588 10.9171 5.93588 11.6319 5.93588C11.6319 5.29277 11.6319 4.6539 11.6319 3.9981ZM7.29637 12.4389C7.30483 12.405 7.30906 12.3881 7.30906 12.3754C7.30906 11.5334 7.30906 10.6957 7.31329 9.85375C7.31329 9.74797 7.26676 9.73528 7.17794 9.73528C6.73381 9.73951 6.28969 9.74374 5.84556 9.73528C5.71021 9.73105 5.6806 9.77759 5.6806 9.90875C5.68483 10.6999 5.68483 11.4954 5.68483 12.2865C5.68483 12.3373 5.68906 12.3881 5.69329 12.4431C6.2347 12.4389 6.76342 12.4389 7.29637 12.4389Z" fill="black"/>
</svg>
