<svg width="24" height="27" viewBox="0 0 24 27" fill="none" xmlns="http://www.w3.org/2000/svg">
<path d="M18.3372 7.22093C18.3372 10.9328 15.3282 13.9419 11.6163 13.9419C7.90445 13.9419 4.89539 10.9328 4.89539 7.22093C4.89539 3.50906 7.90445 0.5 11.6163 0.5C15.3282 0.5 18.3372 3.50906 18.3372 7.22093Z" fill="white" stroke="#EFEFEF"/>
<path d="M21.7907 26.3229C21.5631 26.4362 21.3065 26.5 21.0349 26.5H2.19767C1.25963 26.5 0.5 25.7395 0.5 24.8023C0.5 19.7036 4.63382 15.5698 9.73256 15.5698H13.5C18.5987 15.5698 22.7326 19.7036 22.7326 24.8023C22.7326 25.1473 22.6297 25.4683 22.4528 25.7362L22.1376 25.2511C22.1091 25.2621 22.0316 25.2932 21.9571 25.3627C21.8647 25.4486 21.7907 25.5813 21.7907 25.7442V26.3229ZM22.3434 25.7442H22.4475C22.4337 25.7649 22.4194 25.7853 22.4047 25.8054C22.3972 25.8155 22.3897 25.8256 22.382 25.8355C22.3777 25.8412 22.3733 25.8469 22.3689 25.8525L22.35 25.8035L22.3272 25.7442H22.3434ZM22.458 25.7442H22.7907C22.7907 25.877 22.7368 25.9881 22.6669 26.0657L22.458 25.7442Z" fill="white" stroke="#EFEFEF"/>
</svg>
