<svg width="22" height="22" viewBox="0 0 22 22" fill="none" xmlns="http://www.w3.org/2000/svg">
<path d="M15.8125 6.1875L14.85 4.19375C14.6438 3.7125 14.1625 3.4375 13.6125 3.4375H8.45625C7.90625 3.4375 7.425 3.7125 7.21875 4.19375L6.1875 6.1875H3.4375C2.68125 6.1875 2.0625 6.80625 2.0625 7.5625V17.1875C2.0625 17.9438 2.68125 18.5625 3.4375 18.5625H18.5625C19.3188 18.5625 19.9375 17.9438 19.9375 17.1875V7.5625C19.9375 6.80625 19.3188 6.1875 18.5625 6.1875H15.8125Z" stroke="black" stroke-width="2" stroke-miterlimit="10" stroke-linejoin="round"/>
<path d="M11 15.8125C13.2782 15.8125 15.125 13.9657 15.125 11.6875C15.125 9.40933 13.2782 7.5625 11 7.5625C8.72183 7.5625 6.875 9.40933 6.875 11.6875C6.875 13.9657 8.72183 15.8125 11 15.8125Z" stroke="black" stroke-width="2" stroke-miterlimit="10" stroke-linejoin="round"/>
<path d="M3.4375 8.25H5.5" stroke="black" stroke-width="2" stroke-miterlimit="10" stroke-linejoin="round"/>
</svg>
