<svg width="10" height="11" viewBox="0 0 10 11" fill="none" xmlns="http://www.w3.org/2000/svg">
<path d="M2.71997 4.4623H1.5416C1.44153 4.4623 1.36053 4.5433 1.36053 4.64337V5.82174C1.36053 5.92169 1.44153 6.00281 1.5416 6.00281H2.71997C2.82004 6.00281 2.90104 5.92169 2.90104 5.82174V4.64337C2.90104 4.54342 2.82004 4.4623 2.71997 4.4623ZM2.53891 5.64068H1.72267V4.82443H2.53891V5.64068Z" fill="black"/>
<path d="M2.71997 4.4623H1.5416C1.44153 4.4623 1.36053 4.5433 1.36053 4.64337V5.82174C1.36053 5.92169 1.44153 6.00281 1.5416 6.00281H2.71997C2.82004 6.00281 2.90104 5.92169 2.90104 5.82174V4.64337C2.90104 4.54342 2.82004 4.4623 2.71997 4.4623ZM2.53891 5.64068H1.72267V4.82443H2.53891V5.64068Z" stroke="black"/>
<path d="M5.4683 4.4623H4.28992C4.18985 4.4623 4.10886 4.5433 4.10886 4.64337V5.82174C4.10886 5.92169 4.18985 6.00281 4.28992 6.00281H5.4683C5.56824 6.00281 5.64936 5.92169 5.64936 5.82174V4.64337C5.64936 4.54342 5.56824 4.4623 5.4683 4.4623ZM5.28723 5.64068H4.47099V4.82443H5.28723V5.64068Z" fill="black"/>
<path d="M5.4683 4.4623H4.28992C4.18985 4.4623 4.10886 4.5433 4.10886 4.64337V5.82174C4.10886 5.92169 4.18985 6.00281 4.28992 6.00281H5.4683C5.56824 6.00281 5.64936 5.92169 5.64936 5.82174V4.64337C5.64936 4.54342 5.56824 4.4623 5.4683 4.4623ZM5.28723 5.64068H4.47099V4.82443H5.28723V5.64068Z" stroke="black"/>
<path d="M8.1319 4.4623H6.95353C6.85358 4.4623 6.77246 4.5433 6.77246 4.64337V5.82174C6.77246 5.92169 6.85358 6.00281 6.95353 6.00281H8.1319C8.23185 6.00281 8.31297 5.92169 8.31297 5.82174V4.64337C8.31297 4.54342 8.23185 4.4623 8.1319 4.4623ZM7.95084 5.64068H7.13459V4.82443H7.95084V5.64068Z" fill="black"/>
<path d="M8.1319 4.4623H6.95353C6.85358 4.4623 6.77246 4.5433 6.77246 4.64337V5.82174C6.77246 5.92169 6.85358 6.00281 6.95353 6.00281H8.1319C8.23185 6.00281 8.31297 5.92169 8.31297 5.82174V4.64337C8.31297 4.54342 8.23185 4.4623 8.1319 4.4623ZM7.95084 5.64068H7.13459V4.82443H7.95084V5.64068Z" stroke="black"/>
<path d="M2.71997 7.14641H1.5416C1.44153 7.14641 1.36053 7.22753 1.36053 7.32747V8.50585C1.36053 8.6058 1.44153 8.68691 1.5416 8.68691H2.71997C2.82004 8.68691 2.90104 8.6058 2.90104 8.50585V7.32747C2.90104 7.22753 2.82004 7.14641 2.71997 7.14641ZM2.53891 8.32478H1.72267V7.50854H2.53891V8.32478Z" fill="black"/>
<path d="M2.71997 7.14641H1.5416C1.44153 7.14641 1.36053 7.22753 1.36053 7.32747V8.50585C1.36053 8.6058 1.44153 8.68691 1.5416 8.68691H2.71997C2.82004 8.68691 2.90104 8.6058 2.90104 8.50585V7.32747C2.90104 7.22753 2.82004 7.14641 2.71997 7.14641ZM2.53891 8.32478H1.72267V7.50854H2.53891V8.32478Z" stroke="black"/>
<path d="M5.4683 7.14641H4.28992C4.18985 7.14641 4.10886 7.22753 4.10886 7.32747V8.50585C4.10886 8.6058 4.18985 8.68691 4.28992 8.68691H5.4683C5.56824 8.68691 5.64936 8.6058 5.64936 8.50585V7.32747C5.64936 7.22753 5.56824 7.14641 5.4683 7.14641ZM5.28723 8.32478H4.47099V7.50854H5.28723V8.32478Z" fill="black"/>
<path d="M5.4683 7.14641H4.28992C4.18985 7.14641 4.10886 7.22753 4.10886 7.32747V8.50585C4.10886 8.6058 4.18985 8.68691 4.28992 8.68691H5.4683C5.56824 8.68691 5.64936 8.6058 5.64936 8.50585V7.32747C5.64936 7.22753 5.56824 7.14641 5.4683 7.14641ZM5.28723 8.32478H4.47099V7.50854H5.28723V8.32478Z" stroke="black"/>
<path d="M8.1319 7.14641H6.95353C6.85358 7.14641 6.77246 7.22753 6.77246 7.32747V8.50585C6.77246 8.6058 6.85358 8.68691 6.95353 8.68691H8.1319C8.23185 8.68691 8.31297 8.6058 8.31297 8.50585V7.32747C8.31297 7.22753 8.23185 7.14641 8.1319 7.14641ZM7.95084 8.32478H7.13459V7.50854H7.95084V8.32478Z" fill="black"/>
<path d="M8.1319 7.14641H6.95353C6.85358 7.14641 6.77246 7.22753 6.77246 7.32747V8.50585C6.77246 8.6058 6.85358 8.68691 6.95353 8.68691H8.1319C8.23185 8.68691 8.31297 8.6058 8.31297 8.50585V7.32747C8.31297 7.22753 8.23185 7.14641 8.1319 7.14641ZM7.95084 8.32478H7.13459V7.50854H7.95084V8.32478Z" stroke="black"/>
<path d="M9.56594 0.956026H8.37006C8.36913 0.956026 8.36829 0.956152 8.36744 0.95628C8.36684 0.956369 8.36624 0.95646 8.36559 0.956509V0.71533C8.36559 0.320848 8.04474 0 7.65026 0C7.25578 0 6.93493 0.320969 6.93493 0.71533V0.956026H5.58744V0.71533C5.58744 0.320848 5.26659 0 4.87211 0C4.47763 0 4.15678 0.320969 4.15678 0.71533V0.956026H2.80917V0.71533C2.80917 0.320848 2.48832 0 2.09384 0C1.69936 0 1.37851 0.320969 1.37851 0.71533V0.956147L1.3767 0.956026H0.181066C0.0809967 0.956026 0 1.03702 0 1.13709V10.5218C0 10.6218 0.0809967 10.7029 0.181066 10.7029H9.56594C9.66588 10.7029 9.747 10.6218 9.747 10.5218V1.13709C9.747 1.03702 9.66588 0.956026 9.56594 0.956026ZM7.29706 0.71533C7.29706 0.520503 7.45544 0.362131 7.65026 0.362131C7.84509 0.362131 8.00346 0.520503 8.00346 0.71533V1.71445C8.00346 1.90916 7.84509 2.06765 7.65026 2.06765C7.45544 2.06765 7.29706 1.90928 7.29706 1.71445V0.71533ZM4.87211 0.362131C5.06682 0.362131 5.22531 0.520503 5.22531 0.71533V1.71445C5.22531 1.90916 5.06694 2.06765 4.87211 2.06765C4.67729 2.06765 4.51891 1.90928 4.51891 1.71445V1.15399C4.51909 1.15188 4.51937 1.14979 4.51966 1.14771C4.52013 1.1442 4.5206 1.14068 4.5206 1.13697C4.5206 1.13326 4.52013 1.12974 4.51966 1.12623C4.51937 1.12415 4.51909 1.12207 4.51891 1.11995V0.71533C4.51891 0.520503 4.67729 0.362131 4.87211 0.362131ZM1.74064 0.71533C1.74064 0.520503 1.89902 0.362131 2.09384 0.362131C2.28855 0.362131 2.44704 0.520503 2.44704 0.71533V1.71445C2.44704 1.90916 2.28867 2.06765 2.09384 2.06765C1.89902 2.06765 1.74064 1.90928 1.74064 1.71445V0.71533ZM9.38487 10.3408H0.362131V1.31816H1.3767L1.37851 1.31804V1.71457C1.37851 2.10905 1.69948 2.4299 2.09384 2.4299C2.4882 2.4299 2.80917 2.10905 2.80917 1.71457V1.31828H4.15678V1.71457C4.15678 2.10905 4.47775 2.4299 4.87211 2.4299C5.26647 2.4299 5.58744 2.10905 5.58744 1.71457V1.31828H6.93493V1.71457C6.93493 2.10905 7.25578 2.4299 7.65026 2.4299C8.04474 2.4299 8.36559 2.10905 8.36559 1.71457V1.31767C8.36638 1.31767 8.3671 1.3178 8.36783 1.31792C8.36855 1.31804 8.36927 1.31816 8.37006 1.31816H9.38487V10.3408Z" fill="black"/>
<path d="M9.56594 0.956026H8.37006C8.36913 0.956026 8.36829 0.956152 8.36744 0.95628C8.36684 0.956369 8.36624 0.95646 8.36559 0.956509V0.71533C8.36559 0.320848 8.04474 0 7.65026 0C7.25578 0 6.93493 0.320969 6.93493 0.71533V0.956026H5.58744V0.71533C5.58744 0.320848 5.26659 0 4.87211 0C4.47763 0 4.15678 0.320969 4.15678 0.71533V0.956026H2.80917V0.71533C2.80917 0.320848 2.48832 0 2.09384 0C1.69936 0 1.37851 0.320969 1.37851 0.71533V0.956147L1.3767 0.956026H0.181066C0.0809967 0.956026 0 1.03702 0 1.13709V10.5218C0 10.6218 0.0809967 10.7029 0.181066 10.7029H9.56594C9.66588 10.7029 9.747 10.6218 9.747 10.5218V1.13709C9.747 1.03702 9.66588 0.956026 9.56594 0.956026ZM7.29706 0.71533C7.29706 0.520503 7.45544 0.362131 7.65026 0.362131C7.84509 0.362131 8.00346 0.520503 8.00346 0.71533V1.71445C8.00346 1.90916 7.84509 2.06765 7.65026 2.06765C7.45544 2.06765 7.29706 1.90928 7.29706 1.71445V0.71533ZM4.87211 0.362131C5.06682 0.362131 5.22531 0.520503 5.22531 0.71533V1.71445C5.22531 1.90916 5.06694 2.06765 4.87211 2.06765C4.67729 2.06765 4.51891 1.90928 4.51891 1.71445V1.15399C4.51909 1.15188 4.51937 1.14979 4.51966 1.14771C4.52013 1.1442 4.5206 1.14068 4.5206 1.13697C4.5206 1.13326 4.52013 1.12974 4.51966 1.12623C4.51937 1.12415 4.51909 1.12207 4.51891 1.11995V0.71533C4.51891 0.520503 4.67729 0.362131 4.87211 0.362131ZM1.74064 0.71533C1.74064 0.520503 1.89902 0.362131 2.09384 0.362131C2.28855 0.362131 2.44704 0.520503 2.44704 0.71533V1.71445C2.44704 1.90916 2.28867 2.06765 2.09384 2.06765C1.89902 2.06765 1.74064 1.90928 1.74064 1.71445V0.71533ZM9.38487 10.3408H0.362131V1.31816H1.3767L1.37851 1.31804V1.71457C1.37851 2.10905 1.69948 2.4299 2.09384 2.4299C2.4882 2.4299 2.80917 2.10905 2.80917 1.71457V1.31828H4.15678V1.71457C4.15678 2.10905 4.47775 2.4299 4.87211 2.4299C5.26647 2.4299 5.58744 2.10905 5.58744 1.71457V1.31828H6.93493V1.71457C6.93493 2.10905 7.25578 2.4299 7.65026 2.4299C8.04474 2.4299 8.36559 2.10905 8.36559 1.71457V1.31767C8.36638 1.31767 8.3671 1.3178 8.36783 1.31792C8.36855 1.31804 8.36927 1.31816 8.37006 1.31816H9.38487V10.3408Z" stroke="black"/>
</svg>
