<svg width="33" height="22" viewBox="0 0 33 22" fill="none" xmlns="http://www.w3.org/2000/svg">
<path d="M31.8488 0H1.15116C0.845855 0 0.553053 0.121283 0.337168 0.337168C0.121283 0.553053 0 0.845855 0 1.15116C0 1.45647 0.121283 1.74927 0.337168 1.96516C0.553053 2.18104 0.845855 2.30233 1.15116 2.30233H31.8488C32.1541 2.30233 32.4469 2.18104 32.6628 1.96516C32.8787 1.74927 33 1.45647 33 1.15116C33 0.845855 32.8787 0.553053 32.6628 0.337168C32.4469 0.121283 32.1541 0 31.8488 0Z" fill="black"/>
<path d="M28.0116 9.71582H4.98832C4.68301 9.71582 4.39021 9.8371 4.17433 10.053C3.95844 10.2689 3.83716 10.5617 3.83716 10.867C3.83716 11.1723 3.95844 11.4651 4.17433 11.681C4.39021 11.8969 4.68301 12.0181 4.98832 12.0181H28.0116C28.3169 12.0181 28.6097 11.8969 28.8256 11.681C29.0415 11.4651 29.1627 11.1723 29.1627 10.867C29.1627 10.5617 29.0415 10.2689 28.8256 10.053C28.6097 9.8371 28.3169 9.71582 28.0116 9.71582Z" fill="black"/>
<path d="M24.1744 19.4316H8.8256C8.52029 19.4316 8.22749 19.5529 8.01161 19.7688C7.79572 19.9847 7.67444 20.2775 7.67444 20.5828C7.67444 20.8881 7.79572 21.1809 8.01161 21.3968C8.22749 21.6127 8.52029 21.734 8.8256 21.734H24.1744C24.4797 21.734 24.7726 21.6127 24.9884 21.3968C25.2043 21.1809 25.3256 20.8881 25.3256 20.5828C25.3256 20.2775 25.2043 19.9847 24.9884 19.7688C24.7726 19.5529 24.4797 19.4316 24.1744 19.4316Z" fill="black"/>
</svg>
