<svg width="24" height="20" viewBox="0 0 24 20" fill="none" xmlns="http://www.w3.org/2000/svg">
<path d="M13.7049 20C13.4955 20 13.2947 19.9168 13.1466 19.7687C12.9985 19.6207 12.9153 19.4198 12.9153 19.2104C12.9153 19.001 12.9985 18.8002 13.1466 18.6521C13.2947 18.504 13.4955 18.4208 13.7049 18.4208C15.9373 18.4177 18.0774 17.5295 19.6559 15.951C21.2344 14.3724 22.1226 12.2324 22.1258 10C21.7567 -0.527131 7.14989 -1.33433 5.39507 8.71042H5.3196V9.21042L5.81557 9.27378C5.81828 9.25262 5.82104 9.23149 5.82386 9.21042H8.15813C8.28964 9.20988 8.41898 9.24391 8.53318 9.30912C8.64103 9.36776 8.73371 9.45074 8.80387 9.55147C8.87404 9.6522 8.91975 9.7679 8.93738 9.88938C8.95501 10.0109 8.94407 10.1348 8.90543 10.2513C8.86679 10.3678 8.80151 10.4737 8.71479 10.5606L5.03141 14.244C4.95808 14.3174 4.87099 14.3756 4.77514 14.4154C4.67929 14.4551 4.57654 14.4756 4.47278 14.4756C4.36902 14.4756 4.26627 14.4551 4.17042 14.4154C4.07457 14.3756 3.98748 14.3174 3.91415 14.244L0.230775 10.5606M13.7049 20C26.9738 19.4512 26.9659 0.544809 13.7049 0M13.7049 20V19.5C13.7023 19.5 13.6997 19.5 13.697 19.4999M13.7049 20L13.6843 19.5004C13.6885 19.5003 13.6928 19.5001 13.697 19.4999M13.7049 0C11.19 0.00192373 8.76805 0.950613 6.92091 2.65729C5.07377 4.36397 3.9369 6.70353 3.7365 9.21042H0.807167C0.668945 9.2059 0.532209 9.24008 0.412378 9.30912C0.304535 9.36776 0.211852 9.45074 0.141688 9.55147C0.0715241 9.6522 0.0258127 9.7679 0.00818416 9.88938C-0.00944439 10.0109 0.00149547 10.1348 0.040135 10.2513C0.0787745 10.3678 0.144049 10.4737 0.230775 10.5606M13.7049 0L13.6844 0.499579C13.6879 0.499722 13.6914 0.499867 13.6949 0.500014M13.7049 0L13.7053 0.5C13.7018 0.500003 13.6983 0.500007 13.6949 0.500014M0.230775 10.5606L0.584637 10.2074M0.230775 10.5606L0.584329 10.207L0.584637 10.2074M0.584637 10.2074L4.26771 13.8904L4.2679 13.8906C4.2948 13.9175 4.32674 13.9389 4.36189 13.9535C4.39704 13.9681 4.43472 13.9756 4.47278 13.9756C4.51084 13.9756 4.54852 13.9681 4.58367 13.9535C4.61882 13.9389 4.65076 13.9175 4.67766 13.8906L4.67785 13.8904L8.36092 10.2074M0.584637 10.2074C0.552829 10.1755 0.52889 10.1367 0.51472 10.0939C0.500549 10.0512 0.496536 10.0057 0.503002 9.96119C0.509467 9.91663 0.526232 9.8742 0.551964 9.83726C0.577697 9.80031 0.611689 9.76988 0.65124 9.74837L0.651312 9.74851L0.661979 9.74236C0.701083 9.71983 0.745704 9.70868 0.79081 9.71015L0.798986 9.71042H0.807167H3.7365H4.19813L4.23491 9.25026C4.42529 6.86862 5.50537 4.64595 7.26022 3.02453C9.01253 1.40548 11.3094 0.50445 13.6949 0.500014M8.36092 10.2074C8.39273 10.1755 8.41667 10.1367 8.43084 10.0939C8.44501 10.0512 8.44903 10.0057 8.44256 9.96119C8.43609 9.91663 8.41933 9.8742 8.3936 9.83726C8.36786 9.80031 8.33387 9.76988 8.29432 9.74837L8.28521 9.74342L8.28526 9.74333C8.24718 9.72158 8.20406 9.71024 8.16021 9.71042L8.15813 9.71043L5.3196 9.71042H4.75166L4.82363 9.14706C6.25108 -2.02624 22.2287 -1.33561 22.6255 9.98248L22.6258 9.99159L22.6258 10.0007C22.6224 12.3655 21.6816 14.6324 20.0094 16.3045C18.3373 17.9767 16.0704 18.9175 13.7056 18.9208L13.7049 18.9208C13.6281 18.9208 13.5545 18.9514 13.5002 19.0057C13.4458 19.06 13.4153 19.1336 13.4153 19.2104C13.4153 19.2872 13.4458 19.3609 13.5002 19.4152C13.5526 19.4676 13.6231 19.4979 13.697 19.4999M8.36092 10.2074L8.71451 10.5603L8.36123 10.207L8.36092 10.2074ZM13.6949 0.500014C26.303 1.02794 26.3093 18.9662 13.697 19.4999M4.13699 12.9197L4.49055 13.2732L4.8441 12.9197L6.62065 11.1431L7.4742 10.2896H6.2671H2.714H1.50689L2.36044 11.1431L4.13699 12.9197Z" stroke="white"/>
<path d="M13.5612 10.2506L13.5601 10.25C13.5161 10.2246 13.4796 10.1881 13.4542 10.1441C13.4288 10.1002 13.4154 10.0504 13.4153 9.99967V5.91787C13.4153 5.84107 13.4458 5.76742 13.5001 5.71311C13.5544 5.6588 13.6281 5.6283 13.7049 5.6283C13.7817 5.6283 13.8553 5.65881 13.9097 5.71311C13.964 5.76742 13.9945 5.84107 13.9945 5.91787V9.54598V9.83378L14.2433 9.97833L18.9424 12.708C19.0021 12.7481 19.0448 12.8092 19.062 12.8793C19.0797 12.9519 19.0688 13.0285 19.0314 13.0931C18.994 13.1578 18.9331 13.2055 18.8614 13.2263C18.7923 13.2464 18.7184 13.24 18.6539 13.2086L13.5612 10.2506Z" stroke="white"/>
</svg>
