<svg width="24" height="26" viewBox="0 0 24 26" fill="none" xmlns="http://www.w3.org/2000/svg">
<path d="M16.1079 23.7174V23.7137V19.8513C16.1079 19.244 15.8649 18.6624 15.4335 18.2341C15.0022 17.806 14.418 17.5661 13.8096 17.5661H10.1791C8.9132 17.5661 7.88077 18.5858 7.88077 19.8513V23.3525L7.84947 23.3628L7.84686 23.7213C7.84267 24.2945 7.37235 24.7632 6.78605 24.7632H4.36569C2.22729 24.7632 0.5 23.0432 0.5 20.9292V9.94322C0.520247 9.15457 0.896341 8.41541 1.52641 7.93058L1.52646 7.93065L1.53395 7.92467L9.76769 1.3339L9.7746 1.32836L9.78132 1.32259C11.0209 0.256131 12.8529 0.22305 14.1308 1.24433L14.1323 1.24553L22.5537 7.92244C23.1541 8.42305 23.5 9.16067 23.5 9.93708V20.9404C23.5 21.9548 23.0934 22.9282 22.3688 23.6457C21.6441 24.3633 20.6607 24.7658 19.6356 24.7632H19.6343H17.1574C16.8765 24.7632 16.608 24.6518 16.4113 24.4551C16.2147 24.2585 16.1059 23.9928 16.1079 23.7174Z" fill="#EFEFEF" stroke="white"/>
</svg>
