<svg width="24" height="20" viewBox="0 0 24 20" fill="none" xmlns="http://www.w3.org/2000/svg">
<path d="M3.7365 9.71042H4.19813L4.23491 9.25026C4.42529 6.86862 5.50537 4.64595 7.26022 3.02453C9.01253 1.40548 11.3094 0.50445 13.6949 0.500014C26.303 1.02794 26.3093 18.9662 13.697 19.4999C13.6231 19.4979 13.5526 19.4676 13.5002 19.4152C13.4458 19.3609 13.4153 19.2872 13.4153 19.2104C13.4153 19.1336 13.4458 19.06 13.5002 19.0057C13.5545 18.9514 13.6281 18.9208 13.7049 18.9208H13.7056C16.0704 18.9175 18.3373 17.9767 20.0094 16.3045C21.6816 14.6324 22.6224 12.3655 22.6258 10.0007L22.6258 9.99159L22.6255 9.98248C22.2287 -1.33561 6.25108 -2.02624 4.82363 9.14706L4.75166 9.71042H5.3196L8.15813 9.71043L8.16021 9.71042C8.20406 9.71023 8.24718 9.72158 8.28526 9.74333L8.28521 9.74342L8.29432 9.74837C8.33387 9.76988 8.36786 9.80031 8.3936 9.83726C8.41933 9.8742 8.43609 9.91663 8.44256 9.96119C8.44903 10.0057 8.44501 10.0512 8.43084 10.0939C8.41672 10.1365 8.39289 10.1752 8.36123 10.207C8.36113 10.2071 8.36103 10.2073 8.36092 10.2074L4.67785 13.8904L4.67766 13.8906C4.65076 13.9175 4.61882 13.9389 4.58367 13.9535C4.54852 13.9681 4.51084 13.9756 4.47278 13.9756C4.43472 13.9756 4.39704 13.9681 4.36189 13.9535C4.32674 13.9389 4.2948 13.9175 4.2679 13.8906L4.26771 13.8904L0.584638 10.2074C0.584548 10.2073 0.584458 10.2072 0.584368 10.2071C0.552693 10.1753 0.52885 10.1365 0.51472 10.0939C0.500548 10.0512 0.496536 10.0057 0.503002 9.96119C0.509467 9.91663 0.526231 9.8742 0.551964 9.83726C0.577697 9.80031 0.611689 9.76988 0.651239 9.74837L0.651312 9.74851L0.661979 9.74236C0.701082 9.71983 0.745704 9.70868 0.790813 9.71015L0.798988 9.71042H0.807167H3.7365ZM4.13699 12.9197L4.49055 13.2732L4.8441 12.9197L6.62065 11.1431L7.4742 10.2896H6.2671H2.714H1.50689L2.36044 11.1431L4.13699 12.9197ZM5.39507 8.71042H5.3196V9.21042L5.81557 9.27378C5.81828 9.25261 5.82104 9.23149 5.82386 9.21042L5.39507 8.71042Z" stroke="white"/>
<path d="M13.5612 10.2506L13.5601 10.25C13.5161 10.2246 13.4796 10.1881 13.4542 10.1441C13.4288 10.1002 13.4154 10.0504 13.4153 9.99967V5.91787C13.4153 5.84107 13.4458 5.76742 13.5001 5.71311C13.5544 5.6588 13.6281 5.6283 13.7049 5.6283C13.7817 5.6283 13.8553 5.65881 13.9097 5.71311C13.964 5.76742 13.9945 5.84107 13.9945 5.91787V9.54598V9.83378L14.2433 9.97833L18.9424 12.708C19.0021 12.7481 19.0448 12.8092 19.062 12.8793C19.0797 12.9519 19.0688 13.0285 19.0314 13.0931C18.994 13.1578 18.9331 13.2055 18.8614 13.2263L19.0007 13.7065L18.8614 13.2263C18.7923 13.2464 18.7184 13.24 18.6539 13.2086L13.5612 10.2506Z" stroke="white"/>
</svg>
