<svg width="36" height="36" viewBox="0 0 36 36" fill="none" xmlns="http://www.w3.org/2000/svg">
<path d="M16.5051 0C17.4884 0 18.4717 0 19.455 0C20.649 0.140403 21.836 0.336968 22.9948 0.673935C30.1447 2.73786 35.4966 9.10514 35.9672 16.8905C36.1287 19.5862 35.6932 22.1977 34.6819 24.718C31.423 32.8543 22.5523 37.5719 14.0259 35.522C7.185 33.8793 2.73915 29.5619 0.632112 22.8506C0.287962 21.7414 0.133446 20.5971 0 19.4458C0 18.463 0 17.4802 0 16.4974C0.112375 15.662 0.189634 14.8266 0.400338 14.0122C2.14918 7.20268 6.38433 2.73786 13.0988 0.638834C14.2085 0.287827 15.3533 0.140403 16.5051 0ZM18.549 33.6265C26.9912 33.4089 34.3939 26.0728 33.6003 16.6027C32.912 8.34696 25.6637 1.60761 16.6105 2.35175C8.39304 3.02569 1.59433 10.2284 2.35286 19.3265C3.04818 27.7366 10.3034 33.9775 18.549 33.6265Z" fill="black"/>
<path d="M23.6012 13.5736C23.6082 16.4882 22.5467 18.3766 20.3744 19.6094C19.4042 20.1582 18.3357 20.2579 17.253 20.3363C15.7767 20.4503 14.4902 21.0204 13.4497 22.1178C12.7397 22.8732 12.4022 23.7853 12.3319 24.8186C12.2827 25.5455 11.7976 25.9944 11.1157 25.9659C10.476 25.9445 10.019 25.4315 10.0331 24.726C10.0612 22.7093 10.9611 21.1344 12.4374 19.8589C12.8733 19.4812 13.3513 19.1534 13.8715 18.904C14.1387 18.7757 14.1668 18.6688 13.9489 18.4479C13.042 17.5072 12.4725 16.3884 12.3249 15.0844C12.0015 12.2767 12.7959 9.9037 15.3479 8.40722C17.9138 6.90361 20.5009 7.89414 22.0827 9.68991C23.1653 10.8942 23.6645 12.3337 23.6012 13.5736ZM21.2813 13.9442C21.3094 13.0463 21.0844 12.184 20.5009 11.4501C19.5167 10.2101 17.956 9.54739 16.3461 10.5379C14.1176 11.9133 14.0051 15.5119 15.9243 17.0512C16.6836 17.6569 17.5131 18.056 18.5255 17.7923C20.1986 17.379 21.2813 15.8754 21.2813 13.9442Z" fill="black"/>
<path d="M21.0822 27.7372C20.7473 27.744 20.4681 27.6133 20.2379 27.3861C19.5122 26.6771 18.7795 25.9681 18.0677 25.2453C17.5793 24.7429 17.5932 24.0614 18.0538 23.614C18.5074 23.1734 19.1772 23.1734 19.6866 23.6346C20.0634 23.9788 20.4263 24.3298 20.7752 24.7016C21.0054 24.9494 21.1659 24.9218 21.3962 24.6947C23.1895 22.9118 24.9898 21.1428 26.7901 19.3669C27.16 19.002 27.5647 18.7749 28.102 18.9401C28.8556 19.1741 29.1556 20.0208 28.709 20.661C28.6183 20.7917 28.4997 20.9088 28.3881 21.0189C26.2947 23.0908 24.1943 25.1559 22.101 27.2209C21.8149 27.5031 21.5148 27.7509 21.0822 27.7372Z" fill="black"/>
</svg>
