<svg width="20" height="9" viewBox="0 0 20 9" fill="none" xmlns="http://www.w3.org/2000/svg">
<path d="M19 4.90985C19 4.43449 18.7901 3.97575 18.3937 3.67931C13.6163 0.106892 6.38368 0.106901 1.60635 3.67931C1.20991 3.97575 1 4.43449 1 4.90985V6.31112C1 7.5048 2.28615 8.32096 3.46851 7.87766L4.37953 7.53609C5.05626 7.28234 5.5 6.66804 5.5 5.98483C5.5 5.39794 5.82403 4.84 6.41036 4.63416C8.47765 3.90843 11.5223 3.90843 13.5896 4.63416C14.176 4.84 14.5 5.39794 14.5 5.98483C14.5 6.66804 14.9437 7.28234 15.6205 7.53609L16.5315 7.87766C17.7138 8.32096 19 7.5048 19 6.31112V4.90985Z" stroke="#595959" stroke-linecap="round" stroke-linejoin="round"/>
</svg>
