<svg width="25" height="25" viewBox="0 0 25 25" fill="none" xmlns="http://www.w3.org/2000/svg">
<path d="M18.75 13.2812H6.25C6.0428 13.2812 5.84409 13.3636 5.69757 13.5101C5.55106 13.6566 5.46875 13.8553 5.46875 14.0625C5.46875 14.2697 5.55106 14.4684 5.69757 14.6149C5.84409 14.7614 6.0428 14.8438 6.25 14.8438H18.75C18.9572 14.8438 19.1559 14.7614 19.3024 14.6149C19.4489 14.4684 19.5312 14.2697 19.5312 14.0625C19.5312 13.8553 19.4489 13.6566 19.3024 13.5101C19.1559 13.3636 18.9572 13.2812 18.75 13.2812Z" fill="white"/>
<path d="M18.75 5.46875H6.25C6.0428 5.46875 5.84409 5.55106 5.69757 5.69757C5.55106 5.84409 5.46875 6.0428 5.46875 6.25C5.46875 6.4572 5.55106 6.65591 5.69757 6.80243C5.84409 6.94894 6.0428 7.03125 6.25 7.03125H18.75C18.9572 7.03125 19.1559 6.94894 19.3024 6.80243C19.4489 6.65591 19.5312 6.4572 19.5312 6.25C19.5312 6.0428 19.4489 5.84409 19.3024 5.69757C19.1559 5.55106 18.9572 5.46875 18.75 5.46875Z" fill="white"/>
<path d="M18.75 9.375H6.25C6.0428 9.375 5.84409 9.45731 5.69757 9.60382C5.55106 9.75034 5.46875 9.94905 5.46875 10.1562C5.46875 10.3635 5.55106 10.5622 5.69757 10.7087C5.84409 10.8552 6.0428 10.9375 6.25 10.9375H18.75C18.9572 10.9375 19.1559 10.8552 19.3024 10.7087C19.4489 10.5622 19.5312 10.3635 19.5312 10.1562C19.5312 9.94905 19.4489 9.75034 19.3024 9.60382C19.1559 9.45731 18.9572 9.375 18.75 9.375Z" fill="white"/>
<path d="M19.5312 1.5625H5.46875C4.43275 1.5625 3.43918 1.97405 2.70661 2.70661C1.97405 3.43918 1.5625 4.43275 1.5625 5.46875V21.1797C1.5625 21.8013 1.80943 22.3974 2.24897 22.837C2.68851 23.2765 3.28465 23.5234 3.90625 23.5234C4.39652 23.5242 4.87468 23.3712 5.27344 23.0859L10.5938 19.2812C11.0103 18.9398 11.5317 18.7522 12.0703 18.75H19.5312C20.0442 18.75 20.5522 18.649 21.0261 18.4527C21.5 18.2563 21.9307 17.9686 22.2934 17.6059C22.6561 17.2432 22.9438 16.8125 23.1402 16.3386C23.3365 15.8647 23.4375 15.3567 23.4375 14.8438V5.46875C23.4375 4.43275 23.0259 3.43918 22.2934 2.70661C21.5608 1.97405 20.5673 1.5625 19.5312 1.5625ZM21.875 14.8438C21.875 15.4654 21.6281 16.0615 21.1885 16.501C20.749 16.9406 20.1529 17.1875 19.5312 17.1875H12.0703C11.1868 17.1849 10.3292 17.4855 9.64062 18.0391L4.35938 21.8125C4.2462 21.8908 4.11434 21.9378 3.97715 21.9488C3.83997 21.9598 3.70231 21.9343 3.57812 21.875C3.4449 21.8134 3.33174 21.7155 3.2516 21.5925C3.17146 21.4695 3.12758 21.3264 3.125 21.1797V5.46875C3.125 4.84715 3.37193 4.25101 3.81147 3.81147C4.25101 3.37193 4.84715 3.125 5.46875 3.125H19.5312C20.1529 3.125 20.749 3.37193 21.1885 3.81147C21.6281 4.25101 21.875 4.84715 21.875 5.46875V14.8438Z" fill="white"/>
</svg>
